<svg xmlns="http://www.w3.org/2000/svg" viewBox="0 0 128 128">
  <defs>
    <linearGradient id="bg" x1="0" y1="0" x2="1" y2="1">
      <stop offset="0%" stop-color="#0f4c81"/>
      <stop offset="100%" stop-color="#37a7ff"/>
    </linearGradient>
  </defs>
  <rect width="128" height="128" rx="24" ry="24" fill="url(#bg)"/>
  <path d="M38 42h52a6 6 0 0 1 6 6v32a6 6 0 0 1-6 6H38a6 6 0 0 1-6-6V48a6 6 0 0 1 6-6zm8 10v20h36V52H46zm0 26v14h28v-14H46z" fill="#fff" opacity="0.9"/>
  <path d="M42 42l14-14" stroke="#fff" stroke-width="10" stroke-linecap="round" opacity="0.9"/>
  <path d="M72 66l16-16" stroke="#fff" stroke-width="10" stroke-linecap="round" opacity="0.9"/>
</svg>
